<?xml version="1.0" encoding="UTF-8" standalone="no"?>
<!-- Created with Inkscape (http://www.inkscape.org/) -->

<svg
   xmlns:dc="http://purl.org/dc/elements/1.1/"
   xmlns:cc="http://creativecommons.org/ns#"
   xmlns:rdf="http://www.w3.org/1999/02/22-rdf-syntax-ns#"
   xmlns:svg="http://www.w3.org/2000/svg"
   xmlns="http://www.w3.org/2000/svg"
   xmlns:sodipodi="http://sodipodi.sourceforge.net/DTD/sodipodi-0.dtd"
   xmlns:inkscape="http://www.inkscape.org/namespaces/inkscape"
   width="109.96752"
   height="18.314156"
   id="svg11252"
   version="1.1"
   inkscape:version="0.48.3.1 r9886"
   sodipodi:docname="label-small-template-svg.svg">
  <defs
     id="defs11254" />
  <sodipodi:namedview
     id="base"
     pagecolor="#ffffff"
     bordercolor="#666666"
     borderopacity="1.0"
     gridtolerance="10000"
     guidetolerance="10"
     objecttolerance="10"
     inkscape:pageopacity="0.0"
     inkscape:pageshadow="2"
     inkscape:zoom="3.959798"
     inkscape:cx="121.59854"
     inkscape:cy="19.562068"
     inkscape:document-units="mm"
     inkscape:current-layer="layer1"
     showgrid="false"
     inkscape:window-width="1678"
     inkscape:window-height="1029"
     inkscape:window-x="0"
     inkscape:window-y="19"
     inkscape:window-maximized="1"
     units="mm"
     fit-margin-top="0"
     fit-margin-left="0"
     fit-margin-right="0"
     fit-margin-bottom="0">
    <inkscape:grid
       type="xygrid"
       id="grid11260"
       units="mm"
       empspacing="5"
       visible="true"
       enabled="true"
       snapvisiblegridlinesonly="true"
       originx="0.017638881mm"
       originy="-7.7095174e-06mm" />
  </sodipodi:namedview>
  <metadata
     id="metadata11257">
    <rdf:RDF>
      <cc:Work
         rdf:about="">
        <dc:format>image/svg+xml</dc:format>
        <dc:type
           rdf:resource="http://purl.org/dc/dcmitype/StillImage" />
        <dc:title></dc:title>
      </cc:Work>
    </rdf:RDF>
  </metadata>
  <g
     inkscape:label="Пласт 1"
     inkscape:groupmode="layer"
     id="layer1"
     transform="translate(0.06249997,-1034.048)">
    <g
       id="g11446">
      <rect
         y="1034.6456"
         x="2.705988e-08"
         height="17.626276"
         width="109.84252"
         id="rect5036"
         style="color:#000000;fill:none;stroke:#000000;stroke-width:0.03766164;stroke-linecap:butt;stroke-linejoin:miter;stroke-miterlimit:4;stroke-opacity:1;stroke-dasharray:none;stroke-dashoffset:0;marker:none;visibility:visible;display:inline;overflow:visible;enable-background:accumulate" />
      <text
         xml:space="preserve"
         style="font-size:10.98903465px;font-style:normal;font-variant:normal;font-weight:normal;font-stretch:normal;text-align:start;line-height:125%;letter-spacing:0px;word-spacing:0px;writing-mode:lr-tb;text-anchor:start;fill:#000000;fill-opacity:1;stroke:none;font-family:Monospace;-inkscape-font-specification:Monospace"
         x="63.405998"
         y="1039.9335"
         id="inv_no"
         sodipodi:linespacing="125%"
         transform="scale(0.99356903,1.0064726)"><tspan
           style="font-size:11px;font-style:normal;font-variant:normal;font-weight:bold;font-stretch:normal;font-family:Courier New;-inkscape-font-specification:Courier New Bold"
           sodipodi:role="line"
           x="63.405998"
           y="1039.9335"
           id="tspan4860">01-0004</tspan></text>
      <g
         id="barcode1"
         transform="matrix(0.26163079,0,0,0.26163079,0,1034.048)"
         inkscape:label="">
        <rect
           id="rect8829"
           height="70"
           width="244"
           y="0"
           x="0"
           style="fill:#ffffff" />
        <g
           id="barcode"
           style="fill:#000000">
          <path
             id="path8832"
             d="M 11,10 V 60 M 13,10 V 60 M 17,10 V 60 M 27,10 v 50 m 6,-50 v 50 m 6,-50 v 50 m 2,-50 v 50 m 2,-50 v 50 m 4,-50 v 50 m 2,-50 v 50 m 6,-50 v 50 m 2,-50 v 50 m 6,-50 v 50 m 2,-50 v 50 m 2,-50 v 50 m 6,-50 v 50 m 4,-50 v 50 m 6,-50 v 50 m 2,-50 v 50 m 4,-50 v 50 m 2,-50 v 50 m 2,-50 v 50 m 6,-50 v 50 m 6,-50 v 50 m 2,-50 v 50 m 2,-50 v 50 m 4,-50 v 50 m 2,-50 v 50 m 6,-50 v 50 m 6,-50 v 50 m 2,-50 v 50 m 2,-50 v 50 m 4,-50 v 50 m 2,-50 v 50 m 6,-50 v 50 m 6,-50 v 50 m 2,-50 v 50 m 2,-50 v 50 m 4,-50 v 50 m 2,-50 v 50 m 6,-50 v 50 m 2,-50 v 50 m 6,-50 v 50 m 6,-50 v 50 m 2,-50 v 50 m 2,-50 v 50 m 4,-50 v 50 m 2,-50 v 50 m 2,-50 v 50 m 8,-50 v 50 m 2,-50 v 50 m 4,-50 v 50 m 4,-50 v 50 m 2,-50 v 50 m 8,-50 v 50 m 2,-50 v 50 m 2,-50 v 50 m 4,-50 v 50 m 4,-50 v 50 m 2,-50 v 50"
             inkscape:connector-curvature="0"
             style="stroke:#000000;stroke-width:2" />
        </g>
      </g>
    </g>
  </g>
</svg>
